<svg xmlns="http://www.w3.org/2000/svg" width="165.898" height="40" viewBox="0 0 165.898 40"><g transform="translate(-616.476 -304.992)"><circle cx="20" cy="20" r="20" transform="translate(616.476 304.992)" fill="#bcbdc0"/><rect width="3.81" height="20.932" transform="translate(634.571 314.516)" fill="#29235c"/><rect width="3.81" height="20" transform="translate(616.476 324.992)" fill="#29235c"/><rect width="3.81" height="27.238" transform="translate(625.523 316.441)" fill="#29235c"/><rect width="3.81" height="27.238" transform="translate(643.619 306.305)" fill="#29235c"/><rect width="3.81" height="20" transform="translate(652.666 304.992)" fill="#29235c"/><path d="M666,308.822h12.615a15.238,15.238,0,0,1,3.611.434,9.265,9.265,0,0,1,3.176,1.417,7.313,7.313,0,0,1,3.132,6.285,6.639,6.639,0,0,1-1.555,4.525,8.638,8.638,0,0,1-4.067,2.559v.092a8.384,8.384,0,0,1,2.81.845,7.462,7.462,0,0,1,2.217,1.691,7.832,7.832,0,0,1,1.44,2.377,7.934,7.934,0,0,1,.526,2.9,8.488,8.488,0,0,1-1.051,4.411,8.342,8.342,0,0,1-2.766,2.833,11.822,11.822,0,0,1-3.931,1.532,22.22,22.22,0,0,1-4.5.457H666Zm5.759,13.163h5.256a6.968,6.968,0,0,0,4.32-1.119,3.891,3.891,0,0,0-.046-6.08,8.59,8.59,0,0,0-4.777-1.028h-4.753Zm0,14.261h5.3a21.652,21.652,0,0,0,2.354-.137,7.061,7.061,0,0,0,2.308-.64,4.549,4.549,0,0,0,1.737-1.44,4.206,4.206,0,0,0,.685-2.536,3.82,3.82,0,0,0-1.668-3.566,10.361,10.361,0,0,0-5.188-1.005h-5.53Z" fill="#29235c"/><path d="M707.792,308.822h4.983l13.94,32.361h-6.582l-3.016-7.4H703.084l-2.925,7.4h-6.445Zm7.313,20.02-4.981-13.164-5.074,13.164Z" fill="#29235c"/><path d="M748.58,315.769a5.317,5.317,0,0,0-2.446-1.942,8.529,8.529,0,0,0-3.222-.618,8.191,8.191,0,0,0-1.943.229,5.3,5.3,0,0,0-1.691.731,3.83,3.83,0,0,0-1.211,1.3,3.758,3.758,0,0,0-.457,1.9,2.965,2.965,0,0,0,1.142,2.514,11.225,11.225,0,0,0,2.834,1.508q1.691.641,3.7,1.234a15.084,15.084,0,0,1,3.7,1.646,9.164,9.164,0,0,1,2.834,2.788,8.293,8.293,0,0,1,1.143,4.617,10.145,10.145,0,0,1-.96,4.547,9.258,9.258,0,0,1-2.583,3.223,11.186,11.186,0,0,1-3.77,1.92,15.8,15.8,0,0,1-4.526.639A16.99,16.99,0,0,1,735.324,341a11.19,11.19,0,0,1-4.8-3.382l4.342-4.206a7.267,7.267,0,0,0,2.766,2.492,7.769,7.769,0,0,0,3.633.891,7.62,7.62,0,0,0,2.012-.275,6.224,6.224,0,0,0,1.828-.822,4.3,4.3,0,0,0,1.326-1.394,3.742,3.742,0,0,0,.5-1.943,3.383,3.383,0,0,0-1.142-2.742A10.106,10.106,0,0,0,742.958,328q-1.692-.662-3.7-1.257a15.557,15.557,0,0,1-3.7-1.623,8.979,8.979,0,0,1-2.834-2.742,8.169,8.169,0,0,1-1.142-4.594,8.716,8.716,0,0,1,1.028-4.342,9.418,9.418,0,0,1,2.7-3.04,11.766,11.766,0,0,1,3.816-1.805,16.39,16.39,0,0,1,4.388-.594,16,16,0,0,1,4.959.777,11.49,11.49,0,0,1,4.32,2.56Z" fill="#29235c"/><path d="M766.7,314.032h-9.919v-5.21h25.6v5.21h-9.919v27.151H766.7Z" fill="#29235c"/></g></svg>